<?xml version="1.0" encoding="utf-8"?>
<!-- Generator: Adobe Illustrator 21.0.2, SVG Export Plug-In . SVG Version: 6.00 Build 0)  -->
<svg version="1.1" id="Layer_1" xmlns:figma="http://www.figma.com/figma/ns"
	 xmlns="http://www.w3.org/2000/svg" xmlns:xlink="http://www.w3.org/1999/xlink" x="0px" y="0px" viewBox="0 0 221 221"
	 style="enable-background:new 0 0 221 221;" xml:space="preserve">
<style type="text/css">
	.st0{fill:#64C5E1;}
	.st1{fill:#A6E5F7;}
	.st2{fill:#85D3EA;}
	.st3{fill:#45B1D2;}
	.st4{opacity:0.3;}
	.st5{fill:url(#path26_fill_1_);}
</style>
<title>Group</title>
<desc>Created using Figma</desc>
<g id="Canvas" transform="translate(1682 3732)" figma:type="canvas">
	<g id="Group_6_" figma:type="frame">
		<g id="Group_5_" figma:type="frame">
			<g id="Group" figma:type="frame">
				<g id="Vector" figma:type="vector">
					<g transform="translate(-1681.86 -3641.9)">
						<path id="path0_fill" class="st0" d="M-1662.9-3598.6l10.6-43.4l35.8,51.8l-13.6,12.9L-1662.9-3598.6z"/>
					</g>
				</g>
				<g id="Vector_12" figma:type="vector">
					<g transform="translate(-1671.05 -3641.82)">
						<path id="path1_fill" class="st1" d="M-1652.1-3641.9l12.5,41.7l22.8,9.7L-1652.1-3641.9z"/>
					</g>
				</g>
				<g id="Vector_1_" figma:type="vector">
					<g transform="translate(-1661.79 -3696.43)">
						<path id="path2_fill" class="st0" d="M-1597.1-3638.5l-13.4-58.1l-32.3,30l28.8,59.1l3.5-22.2L-1597.1-3638.5z"/>
					</g>
				</g>
				<g id="Vector_10" figma:type="vector">
					<g transform="translate(-1630.09 -3697.23)">
						<path id="path3_fill" class="st1" d="M-1611.1-3628.8v-68.6l13.7,58.3L-1611.1-3628.8z"/>
					</g>
				</g>
				<g id="Vector_2_" figma:type="vector">
					<g transform="matrix(-1 0 0 1 -1517.31 -3696.43)">
						<path id="path4_fill" class="st0" d="M-1544-3638.5l13.4-58.1l32.3,30l-28.8,59.1l-3.5-22.2L-1544-3638.5z"/>
					</g>
				</g>
				<g id="Vector_10_1_" figma:type="vector">
					<g transform="matrix(-1 0 0 1 -1549.64 -3697.23)">
						<path id="path3_fill_1_" class="st1" d="M-1530.6-3628.8v-68.6l-13.7,58.3L-1530.6-3628.8z"/>
					</g>
				</g>
				<g id="Vector_2" figma:type="vector">
					<g transform="translate(-1617.5 -3731.4)">
						<path id="path5_fill" class="st2" d="M-1585.6-3642.4l14.6-8.6l15.1,8.6l11.9-61.6l-27-27.5l-27.5,27.5L-1585.6-3642.4z"/>
					</g>
				</g>
				<g id="Vector_7" figma:type="vector">
					<g transform="translate(-1617 -3730.37)">
						<path id="path6_fill" class="st1" d="M-1571.3-3695.6v-34.8l-26.7,27.4L-1571.3-3695.6z"/>
					</g>
				</g>
			</g>
			<g id="Group_1_" figma:type="frame">
				<g id="Vector_3_" figma:type="vector">
					<g transform="translate(-1590.25 -3562.87)">
						<path id="path7_fill" class="st0" d="M-1571.2-3529.5l0.6,0.4l29.6-16.8l-30.2-17.1V-3529.5z"/>
					</g>
				</g>
				<g id="Vector_4_" figma:type="vector">
					<g transform="translate(-1558.93 -3579.56)">
						<path id="path8_fill" class="st2" d="M-1539.9-3546.5l28.7-16.3v-0.3l-20.1-11.8l-8.6-4.8V-3546.5z"/>
					</g>
				</g>
				<g id="Vector_5_" figma:type="vector">
					<g transform="translate(-1590.25 -3580.06)">
						<path id="path9_fill" class="st1" d="M-1540.8-3580.2l-30.4,16.9v0.3l30.2,17.1l1.1-0.6v-33.1L-1540.8-3580.2z"/>
					</g>
				</g>
				<g id="Vector_6_" figma:type="vector">
					<g transform="translate(-1589.62 -3545.8)">
						<path id="path10_fill" class="st3" d="M-1541.1-3545.9l-29.6,16.8l8.6,4.9l-8.6-4.9l30.7,17.4v-33.6L-1541.1-3545.9z"/>
					</g>
				</g>
				<g id="Vector_7_" figma:type="vector">
					<g transform="translate(-1558.93 -3562.74)">
						<path id="path11_fill" class="st3" d="M-1511.3-3562.8l-28.7,16.3v1.3l28.4,16.3l0.3-0.1V-3562.8z"/>
					</g>
				</g>
				<g id="Vector_8_" figma:type="vector">
					<g transform="translate(-1558.93 -3545.17)">
						<path id="path12_fill" class="st0" d="M-1539.9-3511.6l28.4-17.3l-28.4-16.3V-3511.6z"/>
					</g>
				</g>
			</g>
			<g id="Group_2_" figma:type="frame">
				<g id="Vector_9_" figma:type="vector">
					<g transform="translate(-1649.17 -3563.5)">
						<path id="path7_fill_1_" class="st0" d="M-1630.2-3530.1l0.6,0.4l29.6-16.8l-30.2-17.1V-3530.1z"/>
					</g>
				</g>
				<g id="Vector_10_" figma:type="vector">
					<g transform="translate(-1617.84 -3580.19)">
						<path id="path8_fill_1_" class="st2" d="M-1598.8-3547.2l28.7-16.3v-0.3l-20.1-11.8l-8.6-4.8V-3547.2z"/>
					</g>
				</g>
				<g id="Vector_11_" figma:type="vector">
					<g transform="translate(-1649.17 -3580.7)">
						<path id="path9_fill_1_" class="st1" d="M-1599.7-3580.8l-30.4,16.9v0.3l30.2,17.1l1.1-0.6v-33.1L-1599.7-3580.8z"/>
					</g>
				</g>
				<g id="Vector_12_" figma:type="vector">
					<g transform="translate(-1648.53 -3546.43)">
						<path id="path10_fill_1_" class="st3" d="M-1600-3546.5l-29.6,16.8l8.6,4.9l-8.6-4.9l30.7,17.4v-33.6L-1600-3546.5z"/>
					</g>
				</g>
				<g id="Vector_13_" figma:type="vector">
					<g transform="translate(-1617.84 -3563.37)">
						<path id="path13_fill" class="st3" d="M-1570.2-3563.5l-28.7,16.3v1.3l28.4,16.3l0.3-0.1V-3563.5z"/>
					</g>
				</g>
				<g id="Vector_14_" figma:type="vector">
					<g transform="translate(-1617.84 -3545.8)">
						<path id="path12_fill_1_" class="st0" d="M-1598.8-3512.3l28.4-17.3l-28.4-16.3V-3512.3z"/>
					</g>
				</g>
			</g>
			<g id="Group_3_" figma:type="frame">
				<g id="Vector_15_" figma:type="vector">
					<g transform="matrix(-1 0 0 1 -1589.17 -3597.01)">
						<path id="path14_fill" class="st3" d="M-1600.6-3580l30.4-17.1v34L-1600.6-3580z"/>
					</g>
				</g>
				<g id="Vector_16_" figma:type="vector">
					<g transform="matrix(-1 0 0 1 -1559.12 -3597.26)">
						<path id="path15_fill" class="st0" d="M-1570.2-3597.1l0.5-0.3l29.6,17.3l-29.9,17.1l-0.1-0.1V-3597.1z"/>
					</g>
				</g>
				<g id="Vector_17_" figma:type="vector">
					<g transform="matrix(-1 0 0 1 -1589.17 -3614.96)">
						<path id="path16_fill" class="st0" d="M-1570.2-3597.1l-30.4,17.1l-0.9-0.4v-13.3v-20.4l1.6-1l29.7,17.4V-3597.1z"/>
					</g>
				</g>
				<g id="Vector_18_" figma:type="vector">
					<g transform="matrix(-1 0 0 1 -1589.17 -3632.03)">
						<path id="path17_fill" class="st1" d="M-1599.8-3615.1l29-17.1l0.6,0.3v34.3L-1599.8-3615.1z"/>
					</g>
				</g>
				<g id="Vector_19_" figma:type="vector">
					<g transform="matrix(-1 0 0 1 -1559.12 -3613.82)">
						<path id="path18_fill" class="st3" d="M-1569.7-3597.4l29.6-16.6v30.3v3.5L-1569.7-3597.4z"/>
					</g>
				</g>
				<g id="Vector_20_" figma:type="vector">
					<g transform="matrix(-1 0 0 1 -1559.12 -3631.78)">
						<path id="path19_fill" class="st2" d="M-1570.2-3597.6v-34.3l30.1,17.8v0.1l-29.6,16.6L-1570.2-3597.6z"/>
					</g>
				</g>
			</g>
			<g id="Group_4_" figma:type="frame">
				<g id="Vector_8" figma:type="vector">
					<g transform="translate(-1617.04 -3703.53)">
						<path id="path20_fill" class="st2" d="M-1570.7-3695.6v44.6l-14.2,8.6l-13.1-61.1L-1570.7-3695.6z"/>
					</g>
				</g>
				<g id="Vector_9" figma:type="vector">
					<g transform="translate(-1589.74 -3703.53)">
						<path id="path21_fill" class="st3" d="M-1543.4-3703.6l-27.3,8v45.1l15.4,7.4L-1543.4-3703.6z"/>
					</g>
				</g>
				<g id="Vector_11" figma:type="vector">
					<g transform="translate(-1660.85 -3666.97)">
						<path id="path22_fill" class="st3" d="M-1610.6-3628.2l-31.3-38.8l28.4,58.8L-1610.6-3628.2z"/>
					</g>
				</g>
				<g id="Vector_11_1_" figma:type="vector">
					<g transform="matrix(-1 0 0 1 -1516.79 -3666.97)">
						<path id="path22_fill_1_" class="st3" d="M-1529.1-3628.2l31.3-38.8l-28.4,58.8L-1529.1-3628.2z"/>
					</g>
				</g>
				<g id="Vector_13" figma:type="vector">
					<g transform="translate(-1680.76 -3600.13)">
						<path id="path23_fill" class="st3" d="M-1629.3-3577.4l-9.7-22.9l-22.8,2.3L-1629.3-3577.4z"/>
					</g>
				</g>
				<g id="Vector_14" figma:type="vector">
					<g transform="translate(-1657.44 -3600.13)">
						<path id="path24_fill" class="st0" d="M-1615.7-3589.9l-13.7,12.6l-9.1-22.9L-1615.7-3589.9z"/>
					</g>
				</g>
			</g>
			<g id="Vector_21_" figma:type="vector">
				<g transform="matrix(-1 0 0 1 -1499.14 -3641.82)">
					<path id="path25_fill" class="st0" d="M-1480.1-3598.5l-10.6-43.4l-35.8,51.8l13.6,12.9L-1480.1-3598.5z"/>
				</g>
			</g>
			<g id="Vector_12_1_" figma:type="vector">
				<g transform="matrix(-1 0 0 1 -1509.95 -3641.74)">
					<path id="path1_fill_1_" class="st1" d="M-1490.9-3641.8l-12.5,41.7l-22.8,9.7L-1490.9-3641.8z"/>
				</g>
			</g>
			<g id="Vector_13_1_" figma:type="vector">
				<g transform="matrix(-1 0 0 1 -1500.24 -3600.04)">
					<path id="path23_fill_1_" class="st3" d="M-1513.7-3577.3l9.7-22.9l22.8,2.3L-1513.7-3577.3z"/>
				</g>
			</g>
			<g id="Vector_14_1_" figma:type="vector">
				<g transform="matrix(-1 0 0 1 -1523.56 -3600.04)">
					<path id="path24_fill_1_" class="st0" d="M-1527.3-3589.9l13.7,12.6l9.1-22.9L-1527.3-3589.9z"/>
				</g>
			</g>
		</g>
		<g id="Union" figma:type="vector-operation" class="st4">
			<g transform="translate(-1681.86 -3731.26)">
				
					<linearGradient id="path26_fill_1_" gradientUnits="userSpaceOnUse" x1="-1875.7042" y1="-3224.3289" x2="-1874.7042" y2="-3224.3289" gradientTransform="matrix(1.118790e-14 219.863 182.712 -1.346270e-14 587552.0625 408666.5938)">
					<stop  offset="0" style="stop-color:#DF7A7D;stop-opacity:0.3"/>
					<stop  offset="1" style="stop-color:#DF7A7D;stop-opacity:0.8"/>
				</linearGradient>
				<path id="path26_fill" class="st5" d="M-1585.6-3642.2l0.6-0.4l0.1,0.2l14-8.4l0.2,0.1v0.3l3.8,1.9l11.1,6.3l0.2-0.8l0.3,0.2
					l11.9-60.6l-0.7,0.2l0.1-0.5l-27-27.5l-27.5,27.5L-1585.6-3642.2z M-1610.6-3629l-0.1,0.8l0.1,0.2l-2.8,20l-0.4-0.8l-0.2,1.6
					l-28.8-59.1l31.7-29.5v-1.4l0.3,1.1l0.3-0.3l13.4,58.1l-9,6L-1610.6-3629z M-1652.3-3641.9l-10.6,43.4l32.8,21.2l0.3-0.3
					l0.4,0.3l13.7-12.6l-0.8-0.3l-19.3-27.9l-16.3-23.7l0.1,0.4L-1652.3-3641.9z M-1629.3-3577.2l-0.2-0.5l0,0L-1629.3-3577.2z
					 M-1530.6-3696.3L-1530.6-3696.3l32.3,30l-0.6,1.2l1.5-1.8l-28.4,58.8l-0.2-1.3l-1,2.1l-3.5-22.2l0,0v0.9l-9.4-7l-4-2.6l0.1-0.3
					l-0.4-0.3l13.7-58.3V-3696.3z M-1570.9-3529.1l0.3,0.2l30.7,17.4l28.4-17.3l0.3-0.1v-33.8v-0.3l-20.1-11.8l-8.6-4.8l-0.4-0.2
					l0.2-0.1v-3.5v-30.3v-0.1l-30.1-17.8l-0.6-0.3l-29,17.1l-1.6,1v20.4v13.3l0.6,0.3l-29.3,16.3v0.3v32.8l-0.9,0.5l30.7,17.4v-0.2
					l1.5,0.8L-1570.9-3529.1z M-1600-3546.4l0.7-0.4v0.8L-1600-3546.4z M-1598.8-3545.8l-0.2-0.1l0.2-0.1V-3545.8z M-1540.3-3546.2
					l-0.7,0.4l0.7,0.4V-3546.2z M-1540.1-3545.3l0.2,0.1v-0.2L-1540.1-3545.3z M-1480.1-3598.4l-10.6-43.4l-0.3,0.5l0.1-0.4
					l-16.3,23.7l-19.3,27.9l-0.8,0.3l13.7,12.6l0.4-0.3l0.3,0.3L-1480.1-3598.4z M-1513.5-3577.6L-1513.5-3577.6l-0.2,0.5
					L-1513.5-3577.6z"/>
			</g>
		</g>
	</g>
</g>
</svg>
