<svg width="221" height="221" viewBox="0 0 221 221" version="1.1" xmlns="http://www.w3.org/2000/svg" xmlns:xlink="http://www.w3.org/1999/xlink" xmlns:figma="http://www.figma.com/figma/ns"><title>Group</title><desc>Created using Figma</desc><g id="Canvas" transform="translate(1682 3732)" figma:type="canvas"><g id="Group" style="mix-blend-mode:normal;" figma:type="frame"><g id="Group" style="mix-blend-mode:normal;" figma:type="frame"><g id="Group" style="mix-blend-mode:normal;" figma:type="frame"><g id="Vector" style="mix-blend-mode:normal;" figma:type="vector"><use xlink:href="#path0_fill" transform="translate(-1681.86 -3641.9)" fill="#64C5E1" style="mix-blend-mode:normal;"/></g><g id="Vector 12" style="mix-blend-mode:normal;" figma:type="vector"><use xlink:href="#path1_fill" transform="translate(-1671.05 -3641.82)" fill="#A6E5F7" style="mix-blend-mode:normal;"/></g><g id="Vector" style="mix-blend-mode:normal;" figma:type="vector"><use xlink:href="#path2_fill" transform="translate(-1661.79 -3696.43)" fill="#64C5E1" style="mix-blend-mode:normal;"/></g><g id="Vector 10" style="mix-blend-mode:normal;" figma:type="vector"><use xlink:href="#path3_fill" transform="translate(-1630.09 -3697.23)" fill="#A6E5F7" style="mix-blend-mode:normal;"/></g><g id="Vector" style="mix-blend-mode:normal;" figma:type="vector"><use xlink:href="#path4_fill" transform="matrix(-1 0 0 1 -1517.31 -3696.43)" fill="#64C5E1" style="mix-blend-mode:normal;"/></g><g id="Vector 10" style="mix-blend-mode:normal;" figma:type="vector"><use xlink:href="#path3_fill" transform="matrix(-1 0 0 1 -1549.64 -3697.23)" fill="#A6E5F7" style="mix-blend-mode:normal;"/></g><g id="Vector 2" style="mix-blend-mode:normal;" figma:type="vector"><use xlink:href="#path5_fill" transform="translate(-1617.5 -3731.4)" fill="#85D3EA" style="mix-blend-mode:normal;"/></g><g id="Vector 7" style="mix-blend-mode:normal;" figma:type="vector"><use xlink:href="#path6_fill" transform="translate(-1617 -3730.37)" fill="#A6E5F7" style="mix-blend-mode:normal;"/></g></g><g id="Group" style="mix-blend-mode:normal;" figma:type="frame"><g id="Vector" style="mix-blend-mode:normal;" figma:type="vector"><use xlink:href="#path7_fill" transform="translate(-1590.25 -3562.87)" fill="#64C5E1" style="mix-blend-mode:normal;"/></g><g id="Vector" style="mix-blend-mode:normal;" figma:type="vector"><use xlink:href="#path8_fill" transform="translate(-1558.93 -3579.56)" fill="#85D3EA" style="mix-blend-mode:normal;"/></g><g id="Vector" style="mix-blend-mode:normal;" figma:type="vector"><use xlink:href="#path9_fill" transform="translate(-1590.25 -3580.06)" fill="#A6E5F7" style="mix-blend-mode:normal;"/></g><g id="Vector" style="mix-blend-mode:normal;" figma:type="vector"><use xlink:href="#path10_fill" transform="translate(-1589.62 -3545.8)" fill="#45B1D2" style="mix-blend-mode:normal;"/></g><g id="Vector" style="mix-blend-mode:normal;" figma:type="vector"><use xlink:href="#path11_fill" transform="translate(-1558.93 -3562.74)" fill="#45B1D2" style="mix-blend-mode:normal;"/></g><g id="Vector" style="mix-blend-mode:normal;" figma:type="vector"><use xlink:href="#path12_fill" transform="translate(-1558.93 -3545.17)" fill="#64C5E1" style="mix-blend-mode:normal;"/></g></g><g id="Group" style="mix-blend-mode:normal;" figma:type="frame"><g id="Vector" style="mix-blend-mode:normal;" figma:type="vector"><use xlink:href="#path7_fill" transform="translate(-1649.17 -3563.5)" fill="#64C5E1" style="mix-blend-mode:normal;"/></g><g id="Vector" style="mix-blend-mode:normal;" figma:type="vector"><use xlink:href="#path8_fill" transform="translate(-1617.84 -3580.19)" fill="#85D3EA" style="mix-blend-mode:normal;"/></g><g id="Vector" style="mix-blend-mode:normal;" figma:type="vector"><use xlink:href="#path9_fill" transform="translate(-1649.17 -3580.7)" fill="#A6E5F7" style="mix-blend-mode:normal;"/></g><g id="Vector" style="mix-blend-mode:normal;" figma:type="vector"><use xlink:href="#path10_fill" transform="translate(-1648.53 -3546.43)" fill="#45B1D2" style="mix-blend-mode:normal;"/></g><g id="Vector" style="mix-blend-mode:normal;" figma:type="vector"><use xlink:href="#path13_fill" transform="translate(-1617.84 -3563.37)" fill="#45B1D2" style="mix-blend-mode:normal;"/></g><g id="Vector" style="mix-blend-mode:normal;" figma:type="vector"><use xlink:href="#path12_fill" transform="translate(-1617.84 -3545.8)" fill="#64C5E1" style="mix-blend-mode:normal;"/></g></g><g id="Group" style="mix-blend-mode:normal;" figma:type="frame"><g id="Vector" style="mix-blend-mode:normal;" figma:type="vector"><use xlink:href="#path14_fill" transform="matrix(-1 0 0 1 -1589.17 -3597.01)" fill="#45B1D2" style="mix-blend-mode:normal;"/></g><g id="Vector" style="mix-blend-mode:normal;" figma:type="vector"><use xlink:href="#path15_fill" transform="matrix(-1 0 0 1 -1559.12 -3597.26)" fill="#64C5E1" style="mix-blend-mode:normal;"/></g><g id="Vector" style="mix-blend-mode:normal;" figma:type="vector"><use xlink:href="#path16_fill" transform="matrix(-1 0 0 1 -1589.17 -3614.96)" fill="#64C5E1" style="mix-blend-mode:normal;"/></g><g id="Vector" style="mix-blend-mode:normal;" figma:type="vector"><use xlink:href="#path17_fill" transform="matrix(-1 0 0 1 -1589.17 -3632.03)" fill="#A6E5F7" style="mix-blend-mode:normal;"/></g><g id="Vector" style="mix-blend-mode:normal;" figma:type="vector"><use xlink:href="#path18_fill" transform="matrix(-1 0 0 1 -1559.12 -3613.82)" fill="#45B1D2" style="mix-blend-mode:normal;"/></g><g id="Vector" style="mix-blend-mode:normal;" figma:type="vector"><use xlink:href="#path19_fill" transform="matrix(-1 0 0 1 -1559.12 -3631.78)" fill="#85D3EA" style="mix-blend-mode:normal;"/></g></g><g id="Group" style="mix-blend-mode:normal;" figma:type="frame"><g id="Vector 8" style="mix-blend-mode:normal;" figma:type="vector"><use xlink:href="#path20_fill" transform="translate(-1617.04 -3703.53)" fill="#85D3EA" style="mix-blend-mode:normal;"/></g><g id="Vector 9" style="mix-blend-mode:normal;" figma:type="vector"><use xlink:href="#path21_fill" transform="translate(-1589.74 -3703.53)" fill="#45B1D2" style="mix-blend-mode:normal;"/></g><g id="Vector 11" style="mix-blend-mode:normal;" figma:type="vector"><use xlink:href="#path22_fill" transform="translate(-1660.85 -3666.97)" fill="#45B1D2" style="mix-blend-mode:normal;"/></g><g id="Vector 11" style="mix-blend-mode:normal;" figma:type="vector"><use xlink:href="#path22_fill" transform="matrix(-1 0 0 1 -1516.79 -3666.97)" fill="#45B1D2" style="mix-blend-mode:normal;"/></g><g id="Vector 13" style="mix-blend-mode:normal;" figma:type="vector"><use xlink:href="#path23_fill" transform="translate(-1680.76 -3600.13)" fill="#45B1D2" style="mix-blend-mode:normal;"/></g><g id="Vector 14" style="mix-blend-mode:normal;" figma:type="vector"><use xlink:href="#path24_fill" transform="translate(-1657.44 -3600.13)" fill="#64C5E1" style="mix-blend-mode:normal;"/></g></g><g id="Vector" style="mix-blend-mode:normal;" figma:type="vector"><use xlink:href="#path25_fill" transform="matrix(-1 0 0 1 -1499.14 -3641.82)" fill="#64C5E1" style="mix-blend-mode:normal;"/></g><g id="Vector 12" style="mix-blend-mode:normal;" figma:type="vector"><use xlink:href="#path1_fill" transform="matrix(-1 0 0 1 -1509.95 -3641.74)" fill="#A6E5F7" style="mix-blend-mode:normal;"/></g><g id="Vector 13" style="mix-blend-mode:normal;" figma:type="vector"><use xlink:href="#path23_fill" transform="matrix(-1 0 0 1 -1500.24 -3600.04)" fill="#45B1D2" style="mix-blend-mode:normal;"/></g><g id="Vector 14" style="mix-blend-mode:normal;" figma:type="vector"><use xlink:href="#path24_fill" transform="matrix(-1 0 0 1 -1523.56 -3600.04)" fill="#64C5E1" style="mix-blend-mode:normal;"/></g></g><g id="Union" style="mix-blend-mode:normal;" opacity="0.3" figma:type="vector-operation"><use xlink:href="#path26_fill" transform="translate(-1681.86 -3731.26)" fill="url(#paint36_linear)" style="mix-blend-mode:normal;"/></g></g></g><defs><linearGradient id="paint36_linear" x1="0" y1="0" x2="1" y2="0" gradientUnits="userSpaceOnUse" gradientTransform="matrix(1.11879e-14 219.863 -182.712 1.34627e-14 182.712 -1.34627e-14)"><stop offset="0" stop-color="#DF7A7D" stop-opacity="0.3"/><stop offset="1" stop-color="#DF7A7D" stop-opacity="0.8"/></linearGradient><path id="path0_fill" d="M 0 43.4215L 10.5993 0L 46.4351 51.7523L 32.8074 64.6273L 0 43.4215Z"/><path id="path1_fill" d="M 0 0L 12.5158 41.7033L 35.2718 51.415L 0 0Z"/><path id="path2_fill" d="M 45.678 58.0636L 32.3027 0L 0 30.0416L 28.7696 89.115L 32.3027 66.8994L 45.678 58.0636Z"/><path id="path3_fill" d="M 0 68.5533L 0 0L 13.6536 58.2703L 0 68.5533Z"/><path id="path4_fill" d="M 45.678 58.0636L 32.3027 0L 0 30.0416L 28.7696 89.115L 32.3027 66.8994L 45.678 58.0636Z"/><path id="path5_fill" d="M 12.8706 89.115L 27.5078 80.5317L 42.6497 89.115L 54.5108 27.5171L 27.5078 0L 0 27.5171L 12.8706 89.115Z"/><path id="path6_fill" d="M 26.7383 34.8479L 26.7383 0L 0 27.4213L 26.7383 34.8479Z"/><path id="path7_fill" d="M -1.92714e-06 33.5065L 0.631482 33.8858L 30.1849 17.0694L -1.92714e-06 -1.92932e-06L -1.92714e-06 33.5065Z"/><path id="path8_fill" d="M 1.92714e-06 33.1272L 28.6694 16.8165L 28.6694 16.5636L 8.58818 4.8047L 1.92714e-06 1.92932e-06L 1.92714e-06 33.1272Z"/><path id="path9_fill" d="M 30.4375 0L -1.92714e-06 16.9429L -1.92714e-06 17.1958L 30.1849 34.2651L 31.3216 33.6329L 31.3216 0.50576L 30.4375 0Z"/><path id="path10_fill" d="M 29.5535 7.71726e-06L -1.92714e-06 16.8165L 8.58819 21.7476L -1.92714e-06 16.8165L 30.6901 34.2651L 30.6901 0.632206L 29.5535 7.71726e-06Z"/><path id="path11_fill" d="M 28.6694 0L 0 16.3107L 0 17.5751L 28.4168 33.8858L 28.6694 33.7594L 28.6694 0Z"/><path id="path12_fill" d="M 1.92714e-06 33.6329L 28.4168 16.3107L 1.92714e-06 7.71726e-06L 1.92714e-06 33.6329Z"/><path id="path13_fill" d="M 28.6694 -3.85863e-06L 1.92714e-06 16.3107L 1.92714e-06 17.5751L 28.4168 33.8858L 28.6694 33.7594L 28.6694 -3.85863e-06Z"/><path id="path14_fill" d="M 30.4375 17.0694L -1.92714e-06 0L -1.92714e-06 34.0123L 30.4375 17.0694Z"/><path id="path15_fill" d="M 30.0587 0.252879L 29.5535 3.85863e-06L -9.63569e-07 17.3222L 29.9324 34.3916L 30.0587 34.2651L 30.0587 0.252879Z"/><path id="path16_fill" d="M -1.92714e-06 17.9544L 30.4375 35.0238L 31.3216 34.6445L 31.3216 21.3683L 31.3216 1.01152L 29.6798 3.85863e-06L -1.92714e-06 17.4487L -1.92714e-06 17.9544Z"/><path id="path17_fill" d="M 29.6798 17.0694L 0.631482 -9.64658e-07L -1.92714e-06 0.252879L -1.92714e-06 34.518L 29.6798 17.0694Z"/><path id="path18_fill" d="M 29.5535 16.5636L -9.63569e-07 -3.85863e-06L -9.63569e-07 30.3455L -9.63569e-07 33.8858L 29.5535 16.5636Z"/><path id="path19_fill" d="M 30.0587 34.2651L 30.0587 0L -9.63569e-07 17.828L -9.63569e-07 17.9544L 29.5535 34.518L 30.0587 34.2651Z"/><path id="path20_fill" d="M 27.3072 7.99789L 27.3072 52.5575L 13.0847 61.1267L 0 0L 27.3072 7.99789Z"/><path id="path21_fill" d="M 27.3072 0L 0 7.99789L 0 53.1288L 15.3603 60.5554L 27.3072 0Z"/><path id="path22_fill" d="M 31.2895 38.8469L 0 0L 28.445 58.8416L 31.2895 38.8469Z"/><path id="path23_fill" d="M 32.4273 22.8511L 22.756 0L 0 2.28511L 32.4273 22.8511Z"/><path id="path24_fill" d="M 22.756 10.283L 9.10239 22.8511L 0 0L 22.756 10.283Z"/><path id="path25_fill" d="M 0 43.4215L 10.5993 0L 46.4351 51.7523L 32.8074 64.6273L 0 43.4215Z"/><path id="path26_fill" fill-rule="evenodd" d="M 77.2236 89.1152L 77.8447 88.751L 77.8971 88.9954L 91.9039 80.5562L 92.1196 80.6785L 92.1196 80.9976L 95.9469 82.8479L 107.003 89.1152L 107.165 88.272L 107.48 88.4241L 119.427 27.8687L 118.759 28.0645L 118.864 27.5173L 91.8608 0L 64.353 27.5173L 77.2236 89.1152ZM 52.2928 102.322L 52.1666 103.116L 52.2966 103.277L 49.4521 123.272L 49.0826 122.508L 48.8326 124.08L 20.063 65.0061L 51.7699 35.5188L 51.7699 34.1626L 52.0308 35.2761L 52.3657 34.9646L 65.7411 93.0281L 56.7267 98.9829L 52.2928 102.322ZM 10.5994 89.4937L 0 132.915L 32.8075 154.121L 33.0948 153.85L 33.5229 154.121L 47.1765 141.553L 46.4069 141.205L 27.0669 113.275L 10.8091 89.5767L 10.9255 89.9646L 10.5994 89.4937ZM 33.5229 154.121L 33.3186 153.638L 33.3273 153.63L 33.5229 154.121ZM 132.219 35.053L 132.239 34.9646L 164.542 65.0061L 163.934 66.2537L 165.403 64.4304L 136.958 123.272L 136.779 122.013L 135.772 124.08L 132.239 101.864L 132.219 101.85L 132.219 102.716L 122.863 95.6697L 118.864 93.0281L 118.937 92.7129L 118.565 92.4331L 132.219 34.1626L 132.219 35.053ZM 91.917 202.22L 92.2399 202.414L 122.93 219.863L 151.347 202.54L 151.599 202.414L 151.599 168.655L 151.599 168.402L 131.518 156.643L 122.93 151.838L 122.503 151.594L 122.74 151.459L 122.74 147.918L 122.74 117.573L 122.74 117.447L 92.6812 99.6184L 92.0496 99.3655L 63.0013 116.435L 61.3595 117.447L 61.3595 137.803L 61.3595 151.079L 61.9735 151.343L 32.6903 167.643L 32.6903 167.896L 32.6903 200.661L 31.8315 201.15L 62.5216 218.598L 62.5216 218.383L 64.0116 219.23L 91.917 202.22ZM 62.8752 184.965L 63.6018 184.561L 63.6018 185.369L 62.8752 184.965ZM 64.0116 185.597L 63.7974 185.478L 64.0116 185.348L 64.0116 185.597ZM 122.52 185.193L 121.793 185.597L 122.52 186.002L 122.52 185.193ZM 122.715 186.11L 122.93 186.23L 122.93 185.98L 122.715 186.11ZM 182.712 132.998L 172.113 89.5767L 171.786 90.0479L 171.903 89.6594L 155.644 113.36L 136.305 141.288L 135.536 141.636L 149.189 154.204L 149.617 153.932L 149.905 154.204L 182.712 132.998ZM 149.385 153.713L 149.394 153.721L 149.189 154.204L 149.385 153.713Z"/></defs></svg>